<svg width="272" height="225" viewBox="0 0 272 225" fill="none" xmlns="http://www.w3.org/2000/svg">
<path d="M110.748 152.414C110.748 153.586 110.504 154.597 110.016 155.446C109.537 156.286 108.873 156.97 108.023 157.497C107.144 158.044 106.139 158.439 105.006 158.684C103.883 158.928 102.618 159.05 101.212 159.05H99.5126V164.895C99.5126 165.246 99.5761 165.554 99.7031 165.817C99.8398 166.071 100.094 166.276 100.465 166.433C100.66 166.511 100.977 166.594 101.417 166.682C101.856 166.77 102.227 166.828 102.53 166.857V168H91.2656V166.857C91.5488 166.828 91.9247 166.789 92.3935 166.74C92.8622 166.682 93.1894 166.613 93.3749 166.535C93.7558 166.379 94.0048 166.188 94.122 165.964C94.249 165.739 94.3124 165.427 94.3124 165.026V150.363C94.3124 150.021 94.2538 149.729 94.1367 149.484C94.0195 149.23 93.7656 149.021 93.3749 148.854C93.1015 148.737 92.7353 148.635 92.2763 148.547C91.8271 148.449 91.4902 148.386 91.2656 148.356V147.214H102.735C105.421 147.214 107.428 147.644 108.756 148.503C110.084 149.353 110.748 150.656 110.748 152.414ZM105.035 153.161C105.035 151.599 104.718 150.441 104.083 149.689C103.458 148.928 102.34 148.547 100.728 148.547H99.5126V157.673H100.128C101.729 157.673 102.945 157.307 103.775 156.574C104.615 155.832 105.035 154.694 105.035 153.161ZM127.887 164.499C127.545 165.056 127.13 165.583 126.642 166.081C126.163 166.569 125.616 166.989 125.001 167.341C124.347 167.712 123.683 167.99 123.009 168.176C122.345 168.371 121.578 168.469 120.709 168.469C119.264 168.469 118.014 168.264 116.959 167.854C115.914 167.443 115.05 166.892 114.366 166.198C113.683 165.505 113.17 164.689 112.828 163.752C112.496 162.805 112.33 161.779 112.33 160.676C112.33 159.68 112.511 158.728 112.872 157.819C113.243 156.901 113.766 156.086 114.439 155.373C115.103 154.68 115.938 154.118 116.944 153.688C117.96 153.259 119.093 153.044 120.343 153.044C121.71 153.044 122.833 153.21 123.712 153.542C124.591 153.874 125.318 154.333 125.894 154.919C126.451 155.476 126.856 156.135 127.11 156.896C127.364 157.648 127.491 158.439 127.491 159.27V160.222H117.589C117.589 162.224 117.975 163.747 118.746 164.792C119.518 165.837 120.743 166.359 122.423 166.359C123.341 166.359 124.166 166.11 124.898 165.612C125.631 165.104 126.256 164.465 126.773 163.693L127.887 164.499ZM122.291 158.933C122.291 158.347 122.262 157.746 122.203 157.131C122.144 156.516 122.042 156.013 121.895 155.622C121.729 155.163 121.5 154.816 121.207 154.582C120.924 154.348 120.562 154.23 120.123 154.23C119.371 154.23 118.77 154.611 118.321 155.373C117.872 156.135 117.628 157.341 117.589 158.991L122.291 158.933ZM143.897 156.149C143.897 156.892 143.668 157.546 143.209 158.112C142.75 158.669 142.144 158.947 141.393 158.947C140.68 158.947 140.074 158.767 139.576 158.405C139.088 158.044 138.844 157.512 138.844 156.809C138.844 156.467 138.868 156.203 138.917 156.018C138.966 155.822 139.01 155.642 139.049 155.476C138.6 155.495 138.126 155.651 137.628 155.944C137.13 156.237 136.69 156.628 136.31 157.116V165.158C136.31 165.5 136.363 165.783 136.471 166.008C136.578 166.232 136.759 166.408 137.013 166.535C137.227 166.643 137.574 166.735 138.053 166.813C138.541 166.882 138.893 166.921 139.107 166.931V168H129.308V166.931C129.552 166.911 129.796 166.887 130.04 166.857C130.294 166.818 130.509 166.77 130.685 166.711C130.997 166.604 131.212 166.438 131.329 166.213C131.446 165.988 131.505 165.695 131.505 165.334V156.809C131.505 156.457 131.422 156.145 131.256 155.871C131.09 155.588 130.89 155.363 130.655 155.197C130.479 155.08 130.255 154.982 129.981 154.904C129.718 154.826 129.425 154.772 129.102 154.743V153.674L136.09 153.293L136.31 153.513V155.637H136.368C137.042 154.855 137.755 154.245 138.507 153.806C139.268 153.356 140.06 153.132 140.88 153.132C141.788 153.132 142.516 153.415 143.062 153.981C143.619 154.538 143.897 155.261 143.897 156.149ZM151.705 168.498C150.758 168.498 149.83 168.356 148.922 168.073C148.023 167.8 147.325 167.507 146.827 167.194L146.388 168.19H145.245L145.055 162.727H146.124C146.27 163.166 146.515 163.664 146.856 164.221C147.198 164.768 147.589 165.261 148.028 165.7C148.487 166.14 149.01 166.511 149.596 166.813C150.191 167.116 150.826 167.268 151.5 167.268C152.389 167.268 153.048 167.097 153.477 166.755C153.917 166.403 154.137 165.866 154.137 165.144C154.137 164.753 154.039 164.431 153.844 164.177C153.648 163.923 153.38 163.703 153.038 163.518C152.657 163.322 152.237 163.156 151.778 163.02C151.329 162.883 150.772 162.717 150.108 162.521C149.444 162.326 148.873 162.131 148.394 161.936C147.926 161.73 147.437 161.413 146.93 160.983C146.49 160.603 146.139 160.144 145.875 159.606C145.611 159.069 145.479 158.43 145.479 157.688C145.479 156.311 146.056 155.197 147.208 154.348C148.37 153.498 149.889 153.073 151.764 153.073C152.652 153.073 153.468 153.166 154.21 153.352C154.962 153.527 155.592 153.723 156.1 153.938L156.407 153.073H157.52L157.755 158.068H156.715C156.373 157.053 155.787 156.179 154.957 155.446C154.127 154.704 153.233 154.333 152.276 154.333C151.524 154.333 150.934 154.489 150.504 154.802C150.074 155.114 149.859 155.549 149.859 156.105C149.859 156.848 150.172 157.385 150.797 157.717C151.432 158.049 152.315 158.361 153.448 158.654C155.196 159.104 156.476 159.719 157.286 160.5C158.097 161.271 158.502 162.258 158.502 163.459C158.502 165.061 157.872 166.301 156.612 167.18C155.362 168.059 153.727 168.498 151.705 168.498ZM175.26 155.197C175.982 155.871 176.534 156.677 176.915 157.614C177.296 158.552 177.486 159.567 177.486 160.661C177.486 161.745 177.296 162.771 176.915 163.737C176.544 164.694 175.997 165.515 175.274 166.198C174.503 166.931 173.58 167.492 172.506 167.883C171.441 168.273 170.221 168.469 168.844 168.469C167.652 168.469 166.554 168.298 165.548 167.956C164.552 167.614 163.668 167.102 162.896 166.418C162.154 165.764 161.568 164.958 161.139 164.001C160.709 163.034 160.494 161.955 160.494 160.764C160.494 159.592 160.68 158.552 161.051 157.644C161.432 156.726 161.998 155.91 162.75 155.197C163.473 154.514 164.361 153.986 165.416 153.615C166.48 153.234 167.667 153.044 168.976 153.044C170.343 153.044 171.544 153.234 172.579 153.615C173.624 153.986 174.518 154.514 175.26 155.197ZM171.51 165.349C171.725 164.802 171.881 164.138 171.978 163.356C172.086 162.575 172.14 161.667 172.14 160.632C172.14 159.948 172.091 159.167 171.993 158.288C171.895 157.409 171.749 156.716 171.554 156.208C171.319 155.593 170.992 155.109 170.572 154.758C170.162 154.406 169.64 154.23 169.005 154.23C168.311 154.23 167.755 154.421 167.335 154.802C166.925 155.183 166.607 155.676 166.383 156.281C166.178 156.838 166.036 157.492 165.958 158.244C165.88 158.986 165.841 159.763 165.841 160.573C165.841 161.638 165.875 162.521 165.943 163.225C166.012 163.918 166.178 164.616 166.441 165.319C166.666 165.925 166.988 166.403 167.408 166.755C167.828 167.106 168.36 167.282 169.005 167.282C169.591 167.282 170.094 167.121 170.514 166.799C170.934 166.467 171.266 165.983 171.51 165.349ZM198.712 168H189.893V166.931C190.079 166.911 190.304 166.887 190.567 166.857C190.831 166.828 191.031 166.779 191.168 166.711C191.373 166.604 191.519 166.447 191.607 166.242C191.695 166.037 191.739 165.734 191.739 165.334V158.479C191.739 157.482 191.554 156.735 191.183 156.237C190.821 155.729 190.284 155.476 189.571 155.476C189.181 155.476 188.814 155.534 188.473 155.651C188.141 155.769 187.813 155.939 187.491 156.164C187.208 156.359 186.978 156.56 186.803 156.765C186.637 156.97 186.495 157.15 186.378 157.307V165.173C186.378 165.515 186.427 165.803 186.524 166.037C186.622 166.262 186.783 166.433 187.008 166.55C187.164 166.638 187.359 166.716 187.594 166.784C187.828 166.853 188.058 166.901 188.282 166.931V168H179.376V166.931C179.62 166.911 179.864 166.887 180.108 166.857C180.362 166.818 180.577 166.77 180.753 166.711C181.065 166.604 181.28 166.438 181.397 166.213C181.515 165.988 181.573 165.695 181.573 165.334V156.809C181.573 156.506 181.495 156.208 181.339 155.915C181.183 155.622 180.977 155.383 180.724 155.197C180.548 155.08 180.323 154.982 180.05 154.904C179.786 154.826 179.493 154.772 179.171 154.743V153.674L186.158 153.293L186.378 153.513V155.637H186.436C186.71 155.393 187.042 155.1 187.433 154.758C187.823 154.416 188.185 154.138 188.517 153.923C188.878 153.688 189.352 153.488 189.937 153.322C190.523 153.156 191.148 153.073 191.812 153.073C193.404 153.073 194.596 153.527 195.387 154.436C196.187 155.334 196.588 156.53 196.588 158.024V165.202C196.588 165.563 196.642 165.852 196.749 166.066C196.856 166.281 197.057 166.452 197.35 166.579C197.506 166.647 197.696 166.716 197.921 166.784C198.155 166.853 198.419 166.901 198.712 166.931V168ZM216.832 167.692C216.402 167.878 215.894 168.049 215.309 168.205C214.723 168.361 214.102 168.439 213.448 168.439C212.247 168.439 211.363 168.264 210.797 167.912C210.23 167.551 209.845 167.038 209.64 166.374H209.552C209.22 166.706 208.897 166.989 208.585 167.224C208.282 167.458 207.955 167.658 207.603 167.824C207.144 168.039 206.7 168.195 206.27 168.293C205.851 168.4 205.26 168.454 204.498 168.454C203.365 168.454 202.398 168.122 201.598 167.458C200.797 166.784 200.396 165.896 200.396 164.792C200.396 164.157 200.484 163.62 200.66 163.181C200.836 162.731 201.085 162.336 201.407 161.994C201.7 161.682 202.037 161.423 202.418 161.218C202.809 161.013 203.233 160.822 203.692 160.646C204.571 160.324 205.626 159.992 206.856 159.65C208.087 159.299 208.985 158.986 209.552 158.713V157.307C209.552 157.062 209.532 156.74 209.493 156.34C209.454 155.939 209.371 155.603 209.244 155.329C209.107 155.017 208.893 154.753 208.6 154.538C208.307 154.323 207.921 154.216 207.442 154.216C207.013 154.216 206.651 154.279 206.358 154.406C206.075 154.523 205.846 154.646 205.67 154.772C205.699 154.968 205.782 155.266 205.919 155.666C206.056 156.066 206.124 156.452 206.124 156.823C206.124 156.989 206.08 157.199 205.992 157.453C205.904 157.697 205.777 157.893 205.611 158.039C205.387 158.234 205.133 158.386 204.85 158.493C204.576 158.601 204.151 158.654 203.575 158.654C202.755 158.654 202.135 158.459 201.715 158.068C201.295 157.668 201.085 157.15 201.085 156.516C201.085 155.969 201.3 155.48 201.729 155.051C202.169 154.611 202.701 154.25 203.326 153.967C203.941 153.674 204.649 153.449 205.45 153.293C206.251 153.127 206.993 153.044 207.677 153.044C208.624 153.044 209.493 153.103 210.284 153.22C211.075 153.327 211.788 153.557 212.423 153.908C213.028 154.25 213.507 154.748 213.858 155.402C214.22 156.047 214.4 156.892 214.4 157.937C214.4 159.04 214.376 160.349 214.327 161.862C214.288 163.376 214.268 164.372 214.268 164.851C214.268 165.29 214.332 165.637 214.459 165.891C214.596 166.145 214.801 166.335 215.074 166.462C215.24 166.54 215.499 166.589 215.851 166.608C216.212 166.618 216.539 166.623 216.832 166.623V167.692ZM209.552 160.061C209.005 160.246 208.463 160.461 207.926 160.705C207.389 160.939 206.949 161.188 206.607 161.452C206.246 161.726 205.963 162.077 205.758 162.507C205.553 162.927 205.45 163.425 205.45 164.001C205.45 164.763 205.621 165.314 205.963 165.656C206.314 165.998 206.744 166.169 207.252 166.169C207.789 166.169 208.228 166.062 208.57 165.847C208.922 165.622 209.229 165.349 209.493 165.026L209.552 160.061ZM226.881 168H217.696V166.931C217.95 166.911 218.194 166.887 218.429 166.857C218.673 166.828 218.888 166.779 219.073 166.711C219.386 166.594 219.596 166.428 219.703 166.213C219.82 165.988 219.879 165.695 219.879 165.334V149.104C219.879 148.732 219.801 148.391 219.644 148.078C219.498 147.756 219.298 147.512 219.044 147.346C218.849 147.219 218.551 147.097 218.15 146.979C217.76 146.862 217.413 146.794 217.11 146.774V145.705L224.478 145.324L224.698 145.559V165.144C224.698 165.505 224.762 165.798 224.889 166.022C225.016 166.247 225.221 166.423 225.504 166.55C225.699 166.638 225.904 166.716 226.119 166.784C226.334 166.853 226.588 166.901 226.881 166.931V168ZM237.56 168H228.302V166.931C228.556 166.911 228.805 166.887 229.049 166.857C229.293 166.828 229.503 166.779 229.679 166.711C229.991 166.594 230.211 166.428 230.338 166.213C230.465 165.988 230.528 165.695 230.528 165.334V156.809C230.528 156.467 230.45 156.169 230.294 155.915C230.138 155.651 229.942 155.441 229.708 155.285C229.532 155.168 229.264 155.056 228.902 154.948C228.551 154.841 228.228 154.772 227.935 154.743V153.674L235.113 153.293L235.333 153.513V165.144C235.333 165.485 235.406 165.778 235.553 166.022C235.699 166.257 235.909 166.433 236.183 166.55C236.378 166.638 236.593 166.716 236.827 166.784C237.061 166.853 237.306 166.901 237.56 166.931V168ZM235.421 148.02C235.421 148.762 235.133 149.396 234.557 149.924C233.99 150.441 233.316 150.7 232.535 150.7C231.744 150.7 231.06 150.441 230.484 149.924C229.918 149.396 229.635 148.762 229.635 148.02C229.635 147.277 229.918 146.643 230.484 146.115C231.06 145.588 231.744 145.324 232.535 145.324C233.326 145.324 234.005 145.588 234.571 146.115C235.138 146.643 235.421 147.277 235.421 148.02ZM253.116 168H238.702V166.989L247.11 154.802C245.948 154.802 244.903 154.816 243.976 154.846C243.048 154.875 242.315 154.992 241.778 155.197C241.593 155.266 241.344 155.622 241.031 156.267C240.728 156.901 240.489 157.565 240.313 158.259H239.273V153.469H252.896V154.377L244.459 166.667C244.693 166.667 245.035 166.672 245.484 166.682C245.934 166.691 246.363 166.696 246.773 166.696C247.252 166.696 247.765 166.687 248.311 166.667C248.858 166.638 249.283 166.604 249.586 166.564C249.986 166.516 250.304 166.379 250.538 166.154C250.782 165.93 250.973 165.661 251.109 165.349C251.236 165.065 251.402 164.641 251.607 164.074C251.812 163.498 251.969 162.985 252.076 162.536H253.116V168ZM270.416 164.499C270.074 165.056 269.659 165.583 269.171 166.081C268.692 166.569 268.145 166.989 267.53 167.341C266.876 167.712 266.212 167.99 265.538 168.176C264.874 168.371 264.107 168.469 263.238 168.469C261.793 168.469 260.543 168.264 259.488 167.854C258.443 167.443 257.579 166.892 256.895 166.198C256.212 165.505 255.699 164.689 255.357 163.752C255.025 162.805 254.859 161.779 254.859 160.676C254.859 159.68 255.04 158.728 255.401 157.819C255.772 156.901 256.295 156.086 256.969 155.373C257.633 154.68 258.468 154.118 259.474 153.688C260.489 153.259 261.622 153.044 262.872 153.044C264.239 153.044 265.362 153.21 266.241 153.542C267.12 153.874 267.848 154.333 268.424 154.919C268.98 155.476 269.386 156.135 269.64 156.896C269.893 157.648 270.02 158.439 270.02 159.27V160.222H260.118C260.118 162.224 260.504 163.747 261.275 164.792C262.047 165.837 263.272 166.359 264.952 166.359C265.87 166.359 266.695 166.11 267.428 165.612C268.16 165.104 268.785 164.465 269.303 163.693L270.416 164.499ZM264.82 158.933C264.82 158.347 264.791 157.746 264.732 157.131C264.674 156.516 264.571 156.013 264.425 155.622C264.259 155.163 264.029 154.816 263.736 154.582C263.453 154.348 263.092 154.23 262.652 154.23C261.9 154.23 261.3 154.611 260.851 155.373C260.401 156.135 260.157 157.341 260.118 158.991L264.82 158.933Z" fill="black"/>
<path d="M76.4238 96.5918C79.5488 100.352 81.8682 104.771 83.3818 109.849C84.9443 114.878 85.7256 120.151 85.7256 125.669C85.7256 132.31 84.7734 138.267 82.8691 143.54C80.9648 148.765 78.3525 153.11 75.0322 156.577C71.6143 160.142 67.5615 162.827 62.874 164.634C58.1865 166.44 52.9619 167.344 47.2002 167.344C40.9014 167.344 35.2861 166.294 30.3545 164.194C25.4229 162.095 21.4189 159.214 18.3428 155.552C15.1201 151.743 12.7031 147.3 11.0918 142.222C9.5293 137.095 8.74805 131.577 8.74805 125.669C8.74805 119.858 9.50488 114.512 11.0186 109.629C12.5811 104.746 14.998 100.327 18.2695 96.3721C21.3945 92.5635 25.4229 89.5605 30.3545 87.3633C35.2861 85.166 40.9258 84.0674 47.2734 84.0674C53.9629 84.0674 59.7002 85.1904 64.4854 87.4365C69.2705 89.6826 73.25 92.7344 76.4238 96.5918ZM69.5391 125.669C69.5391 114.048 67.5371 105.039 63.5332 98.6426C59.5781 92.2461 54.1826 89.0479 47.3467 89.0479C40.4131 89.0479 34.9443 92.2461 30.9404 98.6426C26.9365 105.039 24.9346 114.048 24.9346 125.669C24.9346 136.704 26.8389 145.591 30.6475 152.329C34.5049 159.019 40.0225 162.363 47.2002 162.363C54.3779 162.363 59.8955 159.019 63.7529 152.329C67.6104 145.591 69.5391 136.704 69.5391 125.669ZM152.596 165H103.23V159.8C104.695 159.702 106.966 159.507 110.042 159.214C113.167 158.872 115.315 158.53 116.487 158.188C118.001 157.7 119.148 156.919 119.93 155.845C120.76 154.722 121.175 153.062 121.175 150.864V99.4482H102.938V93.2959H106.966C112.239 93.2959 116.951 92.3193 121.102 90.3662C125.301 88.4131 128.304 86.3135 130.11 84.0674H136.189C136.043 87.2412 135.896 90.9521 135.75 95.2002C135.604 99.4482 135.53 103.257 135.53 106.626V150.059C135.53 151.768 135.896 153.306 136.629 154.673C137.41 155.991 138.509 156.968 139.925 157.603C141.194 158.14 143.27 158.628 146.15 159.067C149.031 159.507 151.18 159.751 152.596 159.8V165Z" fill="#01996D" fill-opacity="0.2"/>
</svg>
