<svg width="398" height="225" viewBox="0 0 398 225" fill="none" xmlns="http://www.w3.org/2000/svg">
<path d="M116.759 148.386C116.457 148.415 116.154 148.483 115.851 148.591C115.548 148.688 115.251 148.815 114.958 148.972C114.508 149.226 114.186 149.504 113.991 149.807C113.805 150.109 113.634 150.476 113.478 150.905C112.941 152.39 112.111 154.768 110.988 158.039C109.875 161.311 108.713 164.709 107.502 168.234H104.557L99.0641 152.78L94.1129 168.234H91.1686C89.5377 163.488 88.2877 159.836 87.4186 157.277C86.5495 154.709 85.817 152.556 85.2213 150.817C85.0358 150.29 84.8258 149.909 84.5914 149.675C84.3571 149.431 84.0543 149.187 83.6832 148.942C83.4196 148.767 83.1364 148.64 82.8336 148.562C82.5407 148.474 82.1989 148.405 81.8082 148.356V147.214H92.8971V148.327C92.2428 148.405 91.7545 148.483 91.4323 148.562C91.11 148.63 90.8561 148.703 90.6705 148.781C90.4948 148.859 90.3873 148.942 90.3483 149.03C90.3092 149.118 90.2897 149.196 90.2897 149.265C90.2897 149.401 90.3043 149.533 90.3336 149.66C90.3727 149.787 90.4118 149.934 90.4508 150.1C90.6852 150.861 91.1588 152.307 91.8717 154.436C92.5846 156.564 93.4635 159.206 94.5084 162.36L99.2399 147.214H102.345L107.839 162.829C108.649 160.319 109.294 158.269 109.772 156.677C110.26 155.085 110.671 153.723 111.003 152.59C111.198 151.896 111.354 151.315 111.471 150.847C111.589 150.378 111.647 149.973 111.647 149.631C111.647 149.426 111.549 149.25 111.354 149.104C111.169 148.957 110.915 148.83 110.592 148.723C110.319 148.635 109.963 148.566 109.523 148.518C109.093 148.459 108.717 148.415 108.395 148.386V147.214H116.759V148.386ZM131.657 156.149C131.657 156.892 131.427 157.546 130.968 158.112C130.509 158.669 129.904 158.947 129.152 158.947C128.439 158.947 127.834 158.767 127.336 158.405C126.847 158.044 126.603 157.512 126.603 156.809C126.603 156.467 126.628 156.203 126.676 156.018C126.725 155.822 126.769 155.642 126.808 155.476C126.359 155.495 125.885 155.651 125.387 155.944C124.889 156.237 124.45 156.628 124.069 157.116V165.158C124.069 165.5 124.123 165.783 124.23 166.008C124.338 166.232 124.518 166.408 124.772 166.535C124.987 166.643 125.334 166.735 125.812 166.813C126.3 166.882 126.652 166.921 126.867 166.931V168H117.067V166.931C117.311 166.911 117.555 166.887 117.799 166.857C118.053 166.818 118.268 166.77 118.444 166.711C118.756 166.604 118.971 166.438 119.089 166.213C119.206 165.988 119.264 165.695 119.264 165.334V156.809C119.264 156.457 119.181 156.145 119.015 155.871C118.849 155.588 118.649 155.363 118.415 155.197C118.239 155.08 118.014 154.982 117.741 154.904C117.477 154.826 117.184 154.772 116.862 154.743V153.674L123.849 153.293L124.069 153.513V155.637H124.128C124.801 154.855 125.514 154.245 126.266 153.806C127.028 153.356 127.819 153.132 128.639 153.132C129.548 153.132 130.275 153.415 130.822 153.981C131.379 154.538 131.657 155.261 131.657 156.149ZM141.94 168H132.682V166.931C132.936 166.911 133.185 166.887 133.429 166.857C133.673 166.828 133.883 166.779 134.059 166.711C134.372 166.594 134.591 166.428 134.718 166.213C134.845 165.988 134.909 165.695 134.909 165.334V156.809C134.909 156.467 134.831 156.169 134.674 155.915C134.518 155.651 134.323 155.441 134.089 155.285C133.913 155.168 133.644 155.056 133.283 154.948C132.931 154.841 132.609 154.772 132.316 154.743V153.674L139.494 153.293L139.714 153.513V165.144C139.714 165.485 139.787 165.778 139.933 166.022C140.08 166.257 140.29 166.433 140.563 166.55C140.758 166.638 140.973 166.716 141.208 166.784C141.442 166.853 141.686 166.901 141.94 166.931V168ZM139.801 148.02C139.801 148.762 139.513 149.396 138.937 149.924C138.371 150.441 137.697 150.7 136.916 150.7C136.125 150.7 135.441 150.441 134.865 149.924C134.298 149.396 134.015 148.762 134.015 148.02C134.015 147.277 134.298 146.643 134.865 146.115C135.441 145.588 136.125 145.324 136.916 145.324C137.707 145.324 138.385 145.588 138.952 146.115C139.518 146.643 139.801 147.277 139.801 148.02ZM154.186 167.326C153.561 167.6 152.892 167.844 152.179 168.059C151.466 168.283 150.597 168.396 149.572 168.396C148.048 168.396 146.916 168.024 146.173 167.282C145.441 166.54 145.075 165.48 145.075 164.104V155.109H142.438V153.527H145.133V149.089H149.894V153.527H153.996V155.109H149.923V163.137C149.923 164.279 150.08 165.09 150.392 165.568C150.714 166.047 151.286 166.286 152.106 166.286C152.37 166.286 152.736 166.267 153.205 166.228C153.673 166.188 154.001 166.145 154.186 166.096V167.326ZM170.959 164.499C170.617 165.056 170.202 165.583 169.714 166.081C169.235 166.569 168.688 166.989 168.073 167.341C167.419 167.712 166.755 167.99 166.081 168.176C165.417 168.371 164.65 168.469 163.781 168.469C162.336 168.469 161.086 168.264 160.031 167.854C158.986 167.443 158.122 166.892 157.438 166.198C156.755 165.505 156.242 164.689 155.9 163.752C155.568 162.805 155.402 161.779 155.402 160.676C155.402 159.68 155.583 158.728 155.944 157.819C156.315 156.901 156.838 156.086 157.511 155.373C158.175 154.68 159.01 154.118 160.016 153.688C161.032 153.259 162.165 153.044 163.415 153.044C164.782 153.044 165.905 153.21 166.784 153.542C167.663 153.874 168.39 154.333 168.966 154.919C169.523 155.476 169.928 156.135 170.182 156.896C170.436 157.648 170.563 158.439 170.563 159.27V160.222H160.661C160.661 162.224 161.047 163.747 161.818 164.792C162.589 165.837 163.815 166.359 165.495 166.359C166.413 166.359 167.238 166.11 167.97 165.612C168.703 165.104 169.328 164.465 169.845 163.693L170.959 164.499ZM165.363 158.933C165.363 158.347 165.334 157.746 165.275 157.131C165.216 156.516 165.114 156.013 164.967 155.622C164.801 155.163 164.572 154.816 164.279 154.582C163.996 154.348 163.634 154.23 163.195 154.23C162.443 154.23 161.842 154.611 161.393 155.373C160.944 156.135 160.7 157.341 160.661 158.991L165.363 158.933ZM203.258 168H194.645C194.411 167.736 194.108 167.395 193.737 166.975C193.366 166.545 193.048 166.164 192.785 165.832C191.75 166.789 190.714 167.478 189.679 167.897C188.654 168.308 187.56 168.513 186.398 168.513C184.572 168.513 183.073 168.02 181.901 167.033C180.739 166.047 180.158 164.763 180.158 163.181C180.158 162.39 180.26 161.711 180.465 161.145C180.68 160.578 181.022 160.012 181.491 159.445C181.94 158.898 182.497 158.41 183.161 157.98C183.825 157.541 184.572 157.131 185.402 156.75C184.523 155.637 183.908 154.689 183.556 153.908C183.214 153.127 183.044 152.326 183.044 151.506C183.044 150.1 183.63 148.942 184.801 148.034C185.973 147.116 187.375 146.657 189.006 146.657C190.529 146.657 191.764 147.019 192.712 147.741C193.659 148.464 194.132 149.421 194.132 150.612C194.132 151.647 193.849 152.575 193.283 153.396C192.716 154.206 191.774 155.002 190.456 155.783C191.52 157.15 192.34 158.181 192.917 158.874C193.503 159.558 194.279 160.461 195.246 161.584C195.861 160.676 196.32 159.841 196.623 159.079C196.935 158.317 197.091 157.678 197.091 157.16C197.091 156.867 196.872 156.633 196.432 156.457C196.003 156.271 195.392 156.101 194.601 155.944V154.831H202.79V155.944C201.901 156.022 201.242 156.13 200.812 156.267C200.392 156.403 199.977 156.682 199.567 157.102C199.391 157.277 199.172 157.59 198.908 158.039C198.654 158.479 198.41 158.903 198.175 159.313C197.892 159.812 197.589 160.334 197.267 160.881C196.945 161.428 196.554 161.999 196.095 162.595C196.994 163.649 197.731 164.44 198.307 164.968C198.893 165.485 199.372 165.842 199.743 166.037C200.163 166.262 200.695 166.442 201.339 166.579C201.984 166.706 202.624 166.789 203.258 166.828V168ZM191.906 150.832C191.906 149.973 191.696 149.299 191.276 148.811C190.866 148.312 190.329 148.063 189.665 148.063C189.03 148.063 188.517 148.269 188.127 148.679C187.736 149.079 187.541 149.606 187.541 150.261C187.541 150.827 187.721 151.472 188.083 152.194C188.444 152.907 189.001 153.776 189.753 154.802C190.495 154.284 191.037 153.684 191.379 153C191.73 152.307 191.906 151.584 191.906 150.832ZM192.008 164.88C191.188 163.894 190.231 162.746 189.137 161.438C188.053 160.129 187.043 158.884 186.105 157.702C185.588 158.21 185.212 158.806 184.977 159.489C184.753 160.163 184.64 160.842 184.64 161.525C184.64 162.824 185.055 163.884 185.885 164.704C186.715 165.524 187.77 165.935 189.049 165.935C189.645 165.935 190.163 165.861 190.602 165.715C191.042 165.559 191.51 165.28 192.008 164.88ZM235.705 148.356C235.422 148.386 235.011 148.454 234.474 148.562C233.947 148.659 233.503 148.835 233.141 149.089C232.77 149.333 232.506 149.772 232.35 150.407C232.204 151.042 232.131 151.994 232.131 153.264V160.998C232.131 163.273 231.359 165.104 229.816 166.491C228.273 167.878 226.232 168.571 223.693 168.571C220.734 168.571 218.444 167.902 216.823 166.564C215.202 165.227 214.391 163.361 214.391 160.969V150.334C214.391 149.992 214.323 149.699 214.186 149.455C214.059 149.211 213.81 148.991 213.439 148.796C213.185 148.669 212.873 148.566 212.502 148.488C212.131 148.41 211.828 148.356 211.593 148.327V147.214H222.492V148.327C222.179 148.347 221.862 148.386 221.54 148.444C221.217 148.493 220.89 148.571 220.558 148.679C220.187 148.796 219.938 148.991 219.811 149.265C219.684 149.538 219.621 149.846 219.621 150.188V160.676C219.621 162.736 220.075 164.235 220.983 165.173C221.891 166.11 223.21 166.579 224.938 166.579C226.637 166.579 227.97 166.062 228.937 165.026C229.904 163.991 230.387 162.468 230.387 160.456V153.41C230.387 152.16 230.299 151.228 230.124 150.612C229.958 149.987 229.699 149.538 229.347 149.265C229.093 149.05 228.649 148.854 228.014 148.679C227.389 148.503 226.95 148.396 226.696 148.356V147.214H235.705V148.356ZM255.964 168H247.145V166.931C247.331 166.911 247.555 166.887 247.819 166.857C248.083 166.828 248.283 166.779 248.42 166.711C248.625 166.604 248.771 166.447 248.859 166.242C248.947 166.037 248.991 165.734 248.991 165.334V158.479C248.991 157.482 248.805 156.735 248.434 156.237C248.073 155.729 247.536 155.476 246.823 155.476C246.432 155.476 246.066 155.534 245.724 155.651C245.392 155.769 245.065 155.939 244.743 156.164C244.46 156.359 244.23 156.56 244.054 156.765C243.888 156.97 243.747 157.15 243.63 157.307V165.173C243.63 165.515 243.678 165.803 243.776 166.037C243.874 166.262 244.035 166.433 244.259 166.55C244.416 166.638 244.611 166.716 244.845 166.784C245.08 166.853 245.309 166.901 245.534 166.931V168H236.628V166.931C236.872 166.911 237.116 166.887 237.36 166.857C237.614 166.818 237.829 166.77 238.005 166.711C238.317 166.604 238.532 166.438 238.649 166.213C238.766 165.988 238.825 165.695 238.825 165.334V156.809C238.825 156.506 238.747 156.208 238.59 155.915C238.434 155.622 238.229 155.383 237.975 155.197C237.799 155.08 237.575 154.982 237.301 154.904C237.038 154.826 236.745 154.772 236.423 154.743V153.674L243.41 153.293L243.63 153.513V155.637H243.688C243.962 155.393 244.294 155.1 244.684 154.758C245.075 154.416 245.436 154.138 245.768 153.923C246.13 153.688 246.603 153.488 247.189 153.322C247.775 153.156 248.4 153.073 249.064 153.073C250.656 153.073 251.847 153.527 252.638 154.436C253.439 155.334 253.839 156.53 253.839 158.024V165.202C253.839 165.563 253.893 165.852 254.001 166.066C254.108 166.281 254.308 166.452 254.601 166.579C254.757 166.647 254.948 166.716 255.173 166.784C255.407 166.853 255.671 166.901 255.964 166.931V168ZM276.281 167.692L269.059 168.117L268.839 167.912V166.564L268.737 166.535C268.258 167.053 267.609 167.507 266.789 167.897C265.978 168.278 265.158 168.469 264.328 168.469C262.355 168.469 260.729 167.736 259.45 166.271C258.171 164.807 257.531 162.912 257.531 160.588C257.531 158.527 258.244 156.76 259.67 155.285C261.105 153.811 262.839 153.073 264.87 153.073C265.671 153.073 266.423 153.166 267.126 153.352C267.829 153.527 268.39 153.737 268.81 153.981V149.191C268.81 148.83 268.737 148.493 268.59 148.181C268.444 147.858 268.249 147.609 268.005 147.434C267.702 147.219 267.321 147.067 266.862 146.979C266.413 146.882 265.959 146.813 265.5 146.774V145.705L273.41 145.324L273.63 145.559V164.763C273.63 165.134 273.688 165.446 273.805 165.7C273.932 165.954 274.132 166.154 274.406 166.301C274.611 166.408 274.909 166.486 275.299 166.535C275.7 166.584 276.027 166.613 276.281 166.623V167.692ZM268.81 165.085V156.809C268.742 156.584 268.644 156.335 268.517 156.062C268.4 155.788 268.234 155.529 268.019 155.285C267.824 155.08 267.56 154.899 267.228 154.743C266.906 154.587 266.54 154.509 266.13 154.509C265.153 154.509 264.352 155.061 263.727 156.164C263.102 157.268 262.79 158.825 262.79 160.837C262.79 161.628 262.843 162.341 262.951 162.976C263.068 163.601 263.268 164.172 263.551 164.689C263.835 165.207 264.196 165.612 264.635 165.905C265.085 166.198 265.622 166.345 266.247 166.345C266.842 166.345 267.336 166.232 267.726 166.008C268.117 165.773 268.478 165.466 268.81 165.085ZM292.98 164.499C292.638 165.056 292.223 165.583 291.735 166.081C291.256 166.569 290.71 166.989 290.094 167.341C289.44 167.712 288.776 167.99 288.102 168.176C287.438 168.371 286.672 168.469 285.802 168.469C284.357 168.469 283.107 168.264 282.052 167.854C281.007 167.443 280.143 166.892 279.46 166.198C278.776 165.505 278.263 164.689 277.922 163.752C277.589 162.805 277.423 161.779 277.423 160.676C277.423 159.68 277.604 158.728 277.965 157.819C278.337 156.901 278.859 156.086 279.533 155.373C280.197 154.68 281.032 154.118 282.038 153.688C283.053 153.259 284.186 153.044 285.436 153.044C286.803 153.044 287.926 153.21 288.805 153.542C289.684 153.874 290.412 154.333 290.988 154.919C291.545 155.476 291.95 156.135 292.204 156.896C292.458 157.648 292.585 158.439 292.585 159.27V160.222H282.682C282.682 162.224 283.068 163.747 283.839 164.792C284.611 165.837 285.837 166.359 287.516 166.359C288.434 166.359 289.259 166.11 289.992 165.612C290.724 165.104 291.349 164.465 291.867 163.693L292.98 164.499ZM287.384 158.933C287.384 158.347 287.355 157.746 287.297 157.131C287.238 156.516 287.135 156.013 286.989 155.622C286.823 155.163 286.593 154.816 286.3 154.582C286.017 154.348 285.656 154.23 285.216 154.23C284.464 154.23 283.864 154.611 283.415 155.373C282.965 156.135 282.721 157.341 282.682 158.991L287.384 158.933ZM308.991 156.149C308.991 156.892 308.761 157.546 308.302 158.112C307.843 158.669 307.238 158.947 306.486 158.947C305.773 158.947 305.168 158.767 304.67 158.405C304.181 158.044 303.937 157.512 303.937 156.809C303.937 156.467 303.962 156.203 304.01 156.018C304.059 155.822 304.103 155.642 304.142 155.476C303.693 155.495 303.219 155.651 302.721 155.944C302.223 156.237 301.784 156.628 301.403 157.116V165.158C301.403 165.5 301.457 165.783 301.564 166.008C301.672 166.232 301.852 166.408 302.106 166.535C302.321 166.643 302.668 166.735 303.146 166.813C303.634 166.882 303.986 166.921 304.201 166.931V168H294.401V166.931C294.645 166.911 294.889 166.887 295.133 166.857C295.387 166.818 295.602 166.77 295.778 166.711C296.09 166.604 296.305 166.438 296.423 166.213C296.54 165.988 296.598 165.695 296.598 165.334V156.809C296.598 156.457 296.515 156.145 296.349 155.871C296.183 155.588 295.983 155.363 295.749 155.197C295.573 155.08 295.348 154.982 295.075 154.904C294.811 154.826 294.518 154.772 294.196 154.743V153.674L301.183 153.293L301.403 153.513V155.637H301.462C302.135 154.855 302.848 154.245 303.6 153.806C304.362 153.356 305.153 153.132 305.973 153.132C306.881 153.132 307.609 153.415 308.156 153.981C308.713 154.538 308.991 155.261 308.991 156.149ZM316.798 168.498C315.851 168.498 314.923 168.356 314.015 168.073C313.117 167.8 312.419 167.507 311.921 167.194L311.481 168.19H310.339L310.148 162.727H311.217C311.364 163.166 311.608 163.664 311.95 164.221C312.292 164.768 312.682 165.261 313.122 165.7C313.581 166.14 314.103 166.511 314.689 166.813C315.285 167.116 315.92 167.268 316.593 167.268C317.482 167.268 318.141 167.097 318.571 166.755C319.01 166.403 319.23 165.866 319.23 165.144C319.23 164.753 319.132 164.431 318.937 164.177C318.742 163.923 318.473 163.703 318.131 163.518C317.751 163.322 317.331 163.156 316.872 163.02C316.423 162.883 315.866 162.717 315.202 162.521C314.538 162.326 313.966 162.131 313.488 161.936C313.019 161.73 312.531 161.413 312.023 160.983C311.584 160.603 311.232 160.144 310.968 159.606C310.705 159.069 310.573 158.43 310.573 157.688C310.573 156.311 311.149 155.197 312.301 154.348C313.464 153.498 314.982 153.073 316.857 153.073C317.746 153.073 318.561 153.166 319.303 153.352C320.055 153.527 320.685 153.723 321.193 153.938L321.501 153.073H322.614L322.848 158.068H321.808C321.466 157.053 320.881 156.179 320.05 155.446C319.22 154.704 318.327 154.333 317.37 154.333C316.618 154.333 316.027 154.489 315.597 154.802C315.168 155.114 314.953 155.549 314.953 156.105C314.953 156.848 315.265 157.385 315.89 157.717C316.525 158.049 317.409 158.361 318.542 158.654C320.29 159.104 321.569 159.719 322.38 160.5C323.19 161.271 323.595 162.258 323.595 163.459C323.595 165.061 322.965 166.301 321.706 167.18C320.456 168.059 318.82 168.498 316.798 168.498ZM336.296 167.326C335.671 167.6 335.002 167.844 334.289 168.059C333.576 168.283 332.707 168.396 331.681 168.396C330.158 168.396 329.025 168.024 328.283 167.282C327.55 166.54 327.184 165.48 327.184 164.104V155.109H324.548V153.527H327.243V149.089H332.004V153.527H336.105V155.109H332.033V163.137C332.033 164.279 332.189 165.09 332.502 165.568C332.824 166.047 333.395 166.286 334.215 166.286C334.479 166.286 334.845 166.267 335.314 166.228C335.783 166.188 336.11 166.145 336.296 166.096V167.326ZM354.064 167.692C353.634 167.878 353.127 168.049 352.541 168.205C351.955 168.361 351.335 168.439 350.68 168.439C349.479 168.439 348.595 168.264 348.029 167.912C347.463 167.551 347.077 167.038 346.872 166.374H346.784C346.452 166.706 346.13 166.989 345.817 167.224C345.514 167.458 345.187 167.658 344.836 167.824C344.377 168.039 343.932 168.195 343.503 168.293C343.083 168.4 342.492 168.454 341.73 168.454C340.597 168.454 339.631 168.122 338.83 167.458C338.029 166.784 337.629 165.896 337.629 164.792C337.629 164.157 337.716 163.62 337.892 163.181C338.068 162.731 338.317 162.336 338.639 161.994C338.932 161.682 339.269 161.423 339.65 161.218C340.041 161.013 340.465 160.822 340.924 160.646C341.803 160.324 342.858 159.992 344.089 159.65C345.319 159.299 346.217 158.986 346.784 158.713V157.307C346.784 157.062 346.764 156.74 346.725 156.34C346.686 155.939 346.603 155.603 346.476 155.329C346.34 155.017 346.125 154.753 345.832 154.538C345.539 154.323 345.153 154.216 344.674 154.216C344.245 154.216 343.883 154.279 343.59 154.406C343.307 154.523 343.078 154.646 342.902 154.772C342.931 154.968 343.014 155.266 343.151 155.666C343.288 156.066 343.356 156.452 343.356 156.823C343.356 156.989 343.312 157.199 343.224 157.453C343.136 157.697 343.009 157.893 342.843 158.039C342.619 158.234 342.365 158.386 342.082 158.493C341.808 158.601 341.383 158.654 340.807 158.654C339.987 158.654 339.367 158.459 338.947 158.068C338.527 157.668 338.317 157.15 338.317 156.516C338.317 155.969 338.532 155.48 338.962 155.051C339.401 154.611 339.933 154.25 340.558 153.967C341.173 153.674 341.882 153.449 342.682 153.293C343.483 153.127 344.225 153.044 344.909 153.044C345.856 153.044 346.725 153.103 347.516 153.22C348.307 153.327 349.02 153.557 349.655 153.908C350.26 154.25 350.739 154.748 351.09 155.402C351.452 156.047 351.632 156.892 351.632 157.937C351.632 159.04 351.608 160.349 351.559 161.862C351.52 163.376 351.501 164.372 351.501 164.851C351.501 165.29 351.564 165.637 351.691 165.891C351.828 166.145 352.033 166.335 352.306 166.462C352.472 166.54 352.731 166.589 353.083 166.608C353.444 166.618 353.771 166.623 354.064 166.623V167.692ZM346.784 160.061C346.237 160.246 345.695 160.461 345.158 160.705C344.621 160.939 344.181 161.188 343.84 161.452C343.478 161.726 343.195 162.077 342.99 162.507C342.785 162.927 342.682 163.425 342.682 164.001C342.682 164.763 342.853 165.314 343.195 165.656C343.547 165.998 343.976 166.169 344.484 166.169C345.021 166.169 345.461 166.062 345.802 165.847C346.154 165.622 346.462 165.349 346.725 165.026L346.784 160.061ZM374.528 168H365.71V166.931C365.895 166.911 366.12 166.887 366.383 166.857C366.647 166.828 366.847 166.779 366.984 166.711C367.189 166.604 367.336 166.447 367.423 166.242C367.511 166.037 367.555 165.734 367.555 165.334V158.479C367.555 157.482 367.37 156.735 366.999 156.237C366.637 155.729 366.1 155.476 365.387 155.476C364.997 155.476 364.631 155.534 364.289 155.651C363.957 155.769 363.63 155.939 363.307 156.164C363.024 156.359 362.795 156.56 362.619 156.765C362.453 156.97 362.311 157.15 362.194 157.307V165.173C362.194 165.515 362.243 165.803 362.34 166.037C362.438 166.262 362.599 166.433 362.824 166.55C362.98 166.638 363.175 166.716 363.41 166.784C363.644 166.853 363.874 166.901 364.098 166.931V168H355.192V166.931C355.436 166.911 355.68 166.887 355.924 166.857C356.178 166.818 356.393 166.77 356.569 166.711C356.882 166.604 357.096 166.438 357.214 166.213C357.331 165.988 357.389 165.695 357.389 165.334V156.809C357.389 156.506 357.311 156.208 357.155 155.915C356.999 155.622 356.794 155.383 356.54 155.197C356.364 155.08 356.139 154.982 355.866 154.904C355.602 154.826 355.309 154.772 354.987 154.743V153.674L361.974 153.293L362.194 153.513V155.637H362.253C362.526 155.393 362.858 155.1 363.249 154.758C363.639 154.416 364.001 154.138 364.333 153.923C364.694 153.688 365.168 153.488 365.754 153.322C366.34 153.156 366.965 153.073 367.629 153.073C369.22 153.073 370.412 153.527 371.203 154.436C372.004 155.334 372.404 156.53 372.404 158.024V165.202C372.404 165.563 372.458 165.852 372.565 166.066C372.673 166.281 372.873 166.452 373.166 166.579C373.322 166.647 373.512 166.716 373.737 166.784C373.971 166.853 374.235 166.901 374.528 166.931V168ZM394.845 167.692L387.624 168.117L387.404 167.912V166.564L387.301 166.535C386.823 167.053 386.173 167.507 385.353 167.897C384.543 168.278 383.722 168.469 382.892 168.469C380.92 168.469 379.294 167.736 378.014 166.271C376.735 164.807 376.095 162.912 376.095 160.588C376.095 158.527 376.808 156.76 378.234 155.285C379.67 153.811 381.403 153.073 383.434 153.073C384.235 153.073 384.987 153.166 385.69 153.352C386.393 153.527 386.955 153.737 387.375 153.981V149.191C387.375 148.83 387.301 148.493 387.155 148.181C387.008 147.858 386.813 147.609 386.569 147.434C386.266 147.219 385.885 147.067 385.426 146.979C384.977 146.882 384.523 146.813 384.064 146.774V145.705L391.974 145.324L392.194 145.559V164.763C392.194 165.134 392.253 165.446 392.37 165.7C392.497 165.954 392.697 166.154 392.97 166.301C393.175 166.408 393.473 166.486 393.864 166.535C394.264 166.584 394.591 166.613 394.845 166.623V167.692ZM387.375 165.085V156.809C387.306 156.584 387.209 156.335 387.082 156.062C386.965 155.788 386.798 155.529 386.584 155.285C386.388 155.08 386.125 154.899 385.793 154.743C385.47 154.587 385.104 154.509 384.694 154.509C383.717 154.509 382.917 155.061 382.292 156.164C381.667 157.268 381.354 158.825 381.354 160.837C381.354 161.628 381.408 162.341 381.515 162.976C381.632 163.601 381.833 164.172 382.116 164.689C382.399 165.207 382.76 165.612 383.2 165.905C383.649 166.198 384.186 166.345 384.811 166.345C385.407 166.345 385.9 166.232 386.291 166.008C386.681 165.773 387.043 165.466 387.375 165.085Z" fill="black"/>
<path d="M76.5552 96.5918C79.6802 100.352 81.9996 104.771 83.5132 109.849C85.0757 114.878 85.857 120.151 85.857 125.669C85.857 132.31 84.9048 138.267 83.0005 143.54C81.0962 148.765 78.4839 153.11 75.1636 156.577C71.7457 160.142 67.6929 162.827 63.0054 164.634C58.3179 166.44 53.0933 167.344 47.3316 167.344C41.0328 167.344 35.4175 166.294 30.4859 164.194C25.5542 162.095 21.5503 159.214 18.4742 155.552C15.2515 151.743 12.8345 147.3 11.2232 142.222C9.66069 137.095 8.87944 131.577 8.87944 125.669C8.87944 119.858 9.63628 114.512 11.1499 109.629C12.7124 104.746 15.1294 100.327 18.4009 96.3721C21.5259 92.5635 25.5542 89.5605 30.4859 87.3633C35.4175 85.166 41.0572 84.0674 47.4048 84.0674C54.0943 84.0674 59.8316 85.1904 64.6167 87.4365C69.4019 89.6826 73.3814 92.7344 76.5552 96.5918ZM69.6705 125.669C69.6705 114.048 67.6685 105.039 63.6646 98.6426C59.7095 92.2461 54.314 89.0479 47.4781 89.0479C40.5445 89.0479 35.0757 92.2461 31.0718 98.6426C27.0679 105.039 25.066 114.048 25.066 125.669C25.066 136.704 26.9703 145.591 30.7789 152.329C34.6363 159.019 40.1539 162.363 47.3316 162.363C54.5093 162.363 60.0269 159.019 63.8843 152.329C67.7417 145.591 69.6705 136.704 69.6705 125.669ZM170.159 165H101.531V155.039C102.849 153.525 104.68 151.841 107.024 149.985C109.368 148.081 112.151 146.03 115.374 143.833C117.327 142.515 119.67 141.074 122.405 139.512C125.139 137.949 128.24 136.24 131.707 134.385C135.564 132.334 138.518 130.527 140.569 128.965C142.669 127.402 144.573 125.474 146.282 123.179C147.405 121.665 148.308 119.785 148.992 117.539C149.675 115.244 150.017 111.997 150.017 107.798C150.017 101.694 148.381 97.2266 145.11 94.3945C141.838 91.5137 137.639 90.0732 132.512 90.0732C129.338 90.0732 126.335 90.708 123.503 91.9775C120.671 93.1982 118.547 94.9072 117.131 97.1045C117.473 98.667 117.888 100.522 118.377 102.671C118.914 104.819 119.182 106.919 119.182 108.97C119.182 110.825 118.401 112.485 116.838 113.95C115.325 115.366 113.054 116.074 110.027 116.074C107.585 116.074 105.706 115.244 104.387 113.584C103.069 111.875 102.41 109.604 102.41 106.772C102.41 104.136 103.142 101.499 104.607 98.8623C106.072 96.1768 108.171 93.7109 110.906 91.4648C113.591 89.2676 116.912 87.4854 120.867 86.1182C124.822 84.751 129.094 84.0674 133.684 84.0674C143.694 84.0674 151.628 86.3135 157.488 90.8057C163.396 95.249 166.35 101.206 166.35 108.677C166.35 112.241 165.813 115.488 164.739 118.418C163.713 121.348 162.029 123.936 159.685 126.182C157.097 128.672 154.07 130.82 150.603 132.627C147.136 134.385 141.838 136.851 134.71 140.024C130.461 141.929 126.506 143.931 122.844 146.03C119.182 148.081 116.179 150.083 113.835 152.036H170.159V165Z" fill="#01996D" fill-opacity="0.2"/>
</svg>
