<svg width="230" height="225" viewBox="0 0 230 225" fill="none" xmlns="http://www.w3.org/2000/svg">
<path d="M150.411 168H139.087V166.857C139.615 166.818 140.235 166.726 140.948 166.579C141.661 166.423 142.017 166.232 142.017 166.008C142.017 165.93 142.007 165.842 141.988 165.744C141.978 165.646 141.939 165.515 141.871 165.349L140.098 161.042H132.92C132.754 161.442 132.569 161.911 132.364 162.448C132.168 162.985 131.998 163.464 131.851 163.884C131.665 164.431 131.553 164.826 131.514 165.07C131.485 165.314 131.47 165.485 131.47 165.583C131.47 165.896 131.705 166.164 132.173 166.389C132.652 166.604 133.443 166.76 134.546 166.857V168H126.021V166.857C126.343 166.838 126.705 166.789 127.105 166.711C127.515 166.623 127.837 166.506 128.072 166.359C128.472 166.125 128.809 165.837 129.082 165.495C129.366 165.153 129.6 164.748 129.786 164.279C130.918 161.535 132.051 158.786 133.184 156.032C134.327 153.278 135.586 150.241 136.963 146.921H139.893C141.807 151.628 143.306 155.349 144.39 158.083C145.474 160.817 146.397 163.083 147.159 164.88C147.286 165.173 147.447 165.441 147.642 165.686C147.837 165.92 148.116 166.145 148.477 166.359C148.75 166.516 149.068 166.633 149.429 166.711C149.79 166.789 150.118 166.838 150.411 166.857V168ZM139.498 159.592L136.48 152.062L133.506 159.592H139.498ZM159.375 168H150.191V166.931C150.445 166.911 150.689 166.887 150.923 166.857C151.167 166.828 151.382 166.779 151.568 166.711C151.88 166.594 152.09 166.428 152.198 166.213C152.315 165.988 152.373 165.695 152.373 165.334V149.104C152.373 148.732 152.295 148.391 152.139 148.078C151.993 147.756 151.792 147.512 151.539 147.346C151.343 147.219 151.045 147.097 150.645 146.979C150.254 146.862 149.908 146.794 149.605 146.774V145.705L156.973 145.324L157.193 145.559V165.144C157.193 165.505 157.256 165.798 157.383 166.022C157.51 166.247 157.715 166.423 157.998 166.55C158.194 166.638 158.399 166.716 158.614 166.784C158.829 166.853 159.082 166.901 159.375 166.931V168ZM170.054 168H160.796V166.931C161.05 166.911 161.299 166.887 161.543 166.857C161.788 166.828 161.998 166.779 162.173 166.711C162.486 166.594 162.706 166.428 162.832 166.213C162.959 165.988 163.023 165.695 163.023 165.334V156.809C163.023 156.467 162.945 156.169 162.789 155.915C162.632 155.651 162.437 155.441 162.203 155.285C162.027 155.168 161.758 155.056 161.397 154.948C161.045 154.841 160.723 154.772 160.43 154.743V153.674L167.608 153.293L167.828 153.513V165.144C167.828 165.485 167.901 165.778 168.047 166.022C168.194 166.257 168.404 166.433 168.677 166.55C168.873 166.638 169.087 166.716 169.322 166.784C169.556 166.853 169.8 166.901 170.054 166.931V168ZM167.915 148.02C167.915 148.762 167.627 149.396 167.051 149.924C166.485 150.441 165.811 150.7 165.03 150.7C164.239 150.7 163.555 150.441 162.979 149.924C162.413 149.396 162.129 148.762 162.129 148.02C162.129 147.277 162.413 146.643 162.979 146.115C163.555 145.588 164.239 145.324 165.03 145.324C165.821 145.324 166.499 145.588 167.066 146.115C167.632 146.643 167.915 147.277 167.915 148.02ZM188.101 154.538C187.662 154.606 187.232 154.772 186.812 155.036C186.402 155.3 186.06 155.71 185.787 156.267C185.103 157.692 184.429 159.133 183.765 160.588C183.111 162.033 182.466 163.435 181.832 164.792C181.636 165.202 181.412 165.729 181.158 166.374C180.914 167.019 180.708 167.604 180.542 168.132H177.847C176.724 165.524 175.762 163.361 174.961 161.643C174.17 159.924 173.331 158.078 172.442 156.105C172.237 155.646 171.915 155.285 171.475 155.021C171.045 154.758 170.606 154.597 170.157 154.538V153.469H179.18V154.538C178.848 154.548 178.457 154.621 178.008 154.758C177.559 154.895 177.334 155.07 177.334 155.285C177.334 155.344 177.354 155.432 177.393 155.549C177.432 155.666 177.481 155.798 177.54 155.944C177.852 156.687 178.321 157.756 178.946 159.152C179.581 160.549 180.249 162.019 180.953 163.562C181.441 162.497 181.905 161.457 182.344 160.441C182.793 159.416 183.345 158.112 183.999 156.53C184.087 156.296 184.136 156.105 184.146 155.959C184.165 155.812 184.175 155.715 184.175 155.666C184.175 155.49 184.087 155.339 183.912 155.212C183.746 155.075 183.545 154.958 183.311 154.86C183.067 154.763 182.832 154.689 182.608 154.641C182.383 154.592 182.198 154.558 182.051 154.538V153.469H188.101V154.538ZM197.681 168H188.423V166.931C188.677 166.911 188.926 166.887 189.17 166.857C189.415 166.828 189.624 166.779 189.8 166.711C190.113 166.594 190.332 166.428 190.459 166.213C190.586 165.988 190.65 165.695 190.65 165.334V156.809C190.65 156.467 190.572 156.169 190.415 155.915C190.259 155.651 190.064 155.441 189.83 155.285C189.654 155.168 189.385 155.056 189.024 154.948C188.672 154.841 188.35 154.772 188.057 154.743V153.674L195.235 153.293L195.455 153.513V165.144C195.455 165.485 195.528 165.778 195.674 166.022C195.821 166.257 196.031 166.433 196.304 166.55C196.499 166.638 196.714 166.716 196.949 166.784C197.183 166.853 197.427 166.901 197.681 166.931V168ZM195.542 148.02C195.542 148.762 195.254 149.396 194.678 149.924C194.112 150.441 193.438 150.7 192.657 150.7C191.866 150.7 191.182 150.441 190.606 149.924C190.04 149.396 189.756 148.762 189.756 148.02C189.756 147.277 190.04 146.643 190.606 146.115C191.182 145.588 191.866 145.324 192.657 145.324C193.448 145.324 194.126 145.588 194.693 146.115C195.259 146.643 195.542 147.277 195.542 148.02ZM213.985 155.197C214.707 155.871 215.259 156.677 215.64 157.614C216.021 158.552 216.211 159.567 216.211 160.661C216.211 161.745 216.021 162.771 215.64 163.737C215.269 164.694 214.722 165.515 213.999 166.198C213.228 166.931 212.305 167.492 211.231 167.883C210.166 168.273 208.946 168.469 207.569 168.469C206.377 168.469 205.279 168.298 204.273 167.956C203.277 167.614 202.393 167.102 201.622 166.418C200.879 165.764 200.293 164.958 199.864 164.001C199.434 163.034 199.219 161.955 199.219 160.764C199.219 159.592 199.405 158.552 199.776 157.644C200.157 156.726 200.723 155.91 201.475 155.197C202.198 154.514 203.086 153.986 204.141 153.615C205.206 153.234 206.392 153.044 207.701 153.044C209.068 153.044 210.269 153.234 211.304 153.615C212.349 153.986 213.243 154.514 213.985 155.197ZM210.235 165.349C210.45 164.802 210.606 164.138 210.704 163.356C210.811 162.575 210.865 161.667 210.865 160.632C210.865 159.948 210.816 159.167 210.718 158.288C210.621 157.409 210.474 156.716 210.279 156.208C210.044 155.593 209.717 155.109 209.297 154.758C208.887 154.406 208.365 154.23 207.73 154.23C207.037 154.23 206.48 154.421 206.06 154.802C205.65 155.183 205.332 155.676 205.108 156.281C204.903 156.838 204.761 157.492 204.683 158.244C204.605 158.986 204.566 159.763 204.566 160.573C204.566 161.638 204.6 162.521 204.668 163.225C204.737 163.918 204.903 164.616 205.166 165.319C205.391 165.925 205.713 166.403 206.133 166.755C206.553 167.106 207.085 167.282 207.73 167.282C208.316 167.282 208.819 167.121 209.239 166.799C209.659 166.467 209.991 165.983 210.235 165.349ZM225.748 149.528C225.748 149.929 225.674 150.461 225.528 151.125C225.391 151.779 225.215 152.551 225 153.439C224.795 154.279 224.561 155.329 224.297 156.589C224.034 157.839 223.755 159.387 223.462 161.232H222.334C222.041 159.367 221.763 157.814 221.499 156.574C221.236 155.334 221.001 154.294 220.796 153.454C220.611 152.683 220.44 151.931 220.284 151.198C220.127 150.456 220.049 149.899 220.049 149.528C220.049 148.776 220.328 148.137 220.884 147.609C221.441 147.072 222.11 146.804 222.891 146.804C223.663 146.804 224.332 147.072 224.898 147.609C225.464 148.137 225.748 148.776 225.748 149.528ZM225.718 165.715C225.718 166.457 225.435 167.097 224.869 167.634C224.312 168.161 223.658 168.425 222.906 168.425C222.144 168.425 221.48 168.161 220.914 167.634C220.357 167.097 220.079 166.457 220.079 165.715C220.079 164.973 220.357 164.333 220.914 163.796C221.48 163.249 222.144 162.976 222.906 162.976C223.658 162.976 224.312 163.249 224.869 163.796C225.435 164.333 225.718 164.973 225.718 165.715Z" fill="black"/>
<path d="M76.8545 96.5918C79.9795 100.352 82.2989 104.771 83.8126 109.849C85.3751 114.878 86.1563 120.151 86.1563 125.669C86.1563 132.31 85.2042 138.267 83.2999 143.54C81.3956 148.765 78.7833 153.11 75.4629 156.577C72.045 160.142 67.9922 162.827 63.3047 164.634C58.6172 166.44 53.3926 167.344 47.6309 167.344C41.3321 167.344 35.7169 166.294 30.7852 164.194C25.8536 162.095 21.8497 159.214 18.7735 155.552C15.5508 151.743 13.1338 147.3 11.5225 142.222C9.96001 137.095 9.17876 131.577 9.17876 125.669C9.17876 119.858 9.9356 114.512 11.4493 109.629C13.0118 104.746 15.4288 100.327 18.7002 96.3721C21.8252 92.5635 25.8536 89.5605 30.7852 87.3633C35.7169 85.166 41.3565 84.0674 47.7042 84.0674C54.3936 84.0674 60.1309 85.1904 64.9161 87.4365C69.7012 89.6826 73.6807 92.7344 76.8545 96.5918ZM69.9698 125.669C69.9698 114.048 67.9678 105.039 63.9639 98.6426C60.0088 92.2461 54.6133 89.0479 47.7774 89.0479C40.8438 89.0479 35.3751 92.2461 31.3711 98.6426C27.3672 105.039 25.3653 114.048 25.3653 125.669C25.3653 136.704 27.2696 145.591 31.0782 152.329C34.9356 159.019 40.4532 162.363 47.6309 162.363C54.8086 162.363 60.3262 159.019 64.1836 152.329C68.0411 145.591 69.9698 136.704 69.9698 125.669ZM129.442 191.733C124.853 191.733 120.653 191.147 116.845 189.976C113.036 188.853 109.765 187.314 107.03 185.361C104.296 183.408 102.172 181.162 100.658 178.623C99.1934 176.084 98.461 173.472 98.461 170.786C98.461 168.394 99.0469 166.245 100.219 164.341C101.391 162.388 103.271 161.411 105.858 161.411C108.788 161.411 111.01 162.144 112.523 163.608C114.086 165.024 114.867 166.66 114.867 168.516C114.867 170.078 114.599 172.056 114.062 174.448C113.573 176.841 113.183 178.55 112.89 179.575C113.231 180.015 113.842 180.601 114.721 181.333C115.648 182.065 116.772 182.725 118.09 183.311C119.652 184.043 121.288 184.629 122.997 185.068C124.706 185.508 127.123 185.728 130.248 185.728C133.178 185.728 135.985 185.239 138.671 184.263C141.405 183.286 143.798 181.724 145.849 179.575C147.997 177.329 149.657 174.692 150.829 171.665C152.05 168.687 152.66 164.756 152.66 159.873C152.66 157.236 152.367 154.624 151.781 152.036C151.244 149.448 150.219 147.202 148.705 145.298C147.191 143.394 145.116 141.929 142.48 140.903C139.892 139.829 136.596 139.292 132.592 139.292H122.997V130.869H129.369C136.107 130.869 140.966 129.014 143.944 125.303C146.923 121.592 148.412 116.001 148.412 108.53C148.412 102.427 146.972 97.8369 144.091 94.7607C141.21 91.6357 137.133 90.0732 131.859 90.0732C129.32 90.0732 127.221 90.3906 125.561 91.0254C123.949 91.6113 122.631 92.1973 121.606 92.7832C120.385 93.4668 119.384 94.2236 118.603 95.0537C117.821 95.8838 117.235 96.4941 116.845 96.8848C117.187 98.4473 117.602 100.376 118.09 102.671C118.578 104.917 118.822 107.065 118.822 109.116C118.822 110.923 118.041 112.559 116.479 114.023C114.965 115.439 112.719 116.147 109.74 116.147C107.152 116.147 105.248 115.22 104.027 113.364C102.856 111.509 102.27 109.36 102.27 106.919C102.27 104.38 102.978 101.792 104.394 99.1553C105.81 96.5186 107.909 94.0527 110.692 91.7578C113.476 89.4629 116.869 87.6074 120.873 86.1914C124.877 84.7754 129.491 84.0674 134.716 84.0674C140.722 84.0674 145.678 84.9707 149.584 86.7773C153.539 88.5352 156.64 90.6836 158.886 93.2227C161.083 95.7129 162.597 98.3252 163.427 101.06C164.257 103.794 164.672 106.138 164.672 108.091C164.672 110.532 164.33 112.998 163.647 115.488C162.963 117.93 161.84 120.2 160.277 122.3C158.568 124.595 156.298 126.694 153.466 128.599C150.683 130.454 147.167 131.968 142.919 133.14V134.312C145.653 134.556 148.559 135.166 151.635 136.143C154.76 137.119 157.567 138.56 160.058 140.464C162.646 142.466 164.77 145.054 166.43 148.228C168.09 151.353 168.92 155.332 168.92 160.166C168.92 169.541 165.16 177.134 157.641 182.944C150.121 188.804 140.722 191.733 129.442 191.733Z" fill="#01996D" fill-opacity="0.2"/>
</svg>
